<?xml version="1.0"?><svg fill="#000000" xmlns="http://www.w3.org/2000/svg"  viewBox="0 0 100 100" width="400px" height="400px">    <path d="M 30.574219 16 C 23.406219 16 17.574219 21.832 17.574219 29 L 17.574219 68 C 17.574219 75.168 23.406219 81 30.574219 81 L 69.574219 81 C 76.742219 81 82.574219 75.168 82.574219 68 L 82.574219 29 C 82.574219 21.832 76.742219 16 69.574219 16 L 30.574219 16 z M 30.574219 18 L 69.574219 18 C 75.639219 18 80.574219 22.935 80.574219 29 L 80.574219 68 C 80.574219 74.065 75.639219 79 69.574219 79 L 30.574219 79 C 24.509219 79 19.574219 74.065 19.574219 68 L 19.574219 29 C 19.574219 22.935 24.509219 18 30.574219 18 z M 33.412109 21 C 27.436109 21 22.574219 25.861891 22.574219 31.837891 L 22.574219 65.162109 C 22.574219 71.138109 27.436109 76 33.412109 76 L 66.738281 76 C 72.714281 76 77.574219 71.138109 77.574219 65.162109 L 77.574219 46.5 C 77.574219 46.224 77.350219 46 77.074219 46 C 76.798219 46 76.574219 46.224 76.574219 46.5 L 76.574219 65.162109 C 76.574219 70.586109 72.162281 75 66.738281 75 L 33.412109 75 C 27.988109 75 23.574219 70.586109 23.574219 65.162109 L 23.574219 31.837891 C 23.574219 26.413891 27.988109 22 33.412109 22 L 67.074219 22 C 67.350219 22 67.574219 21.776 67.574219 21.5 C 67.574219 21.224 67.350219 21 67.074219 21 L 33.412109 21 z M 52.039062 32 C 49.596063 32.002 47.703969 32.659172 46.417969 33.951172 C 45.187969 35.187172 44.566219 36.913078 44.574219 39.080078 L 45.074219 39.136719 L 44.574219 39.136719 L 44.574219 43 L 42.074219 43 C 41.798219 43 41.574219 43.224 41.574219 43.5 L 41.574219 48.5 C 41.574219 48.776 41.798219 49 42.074219 49 L 44.574219 49 L 44.574219 64.5 C 44.574219 64.776 44.798219 65 45.074219 65 L 52.074219 65 C 52.350219 65 52.574219 64.776 52.574219 64.5 L 52.574219 49 L 56.1875 49 C 56.4325 49 56.640687 48.822078 56.679688 48.580078 C 56.683687 48.556078 57.072812 46.140156 57.257812 43.535156 C 57.267812 43.396156 57.217047 43.261156 57.123047 43.160156 C 57.029047 43.058156 56.896813 43 56.757812 43 L 51.574219 43 L 51.574219 39.800781 C 51.575219 39.549781 52.047578 39 52.517578 39 L 57.074219 39 C 57.350219 39 57.574219 38.776 57.574219 38.5 L 57.574219 32.5 C 57.574219 32.224 57.350219 32 57.074219 32 L 52.039062 32 z M 52.039062 33 L 56.574219 33 L 56.574219 38 L 52.517578 38 C 51.573578 38 50.574219 38.925781 50.574219 39.800781 L 50.574219 43.5 C 50.574219 43.776 50.797219 44 51.074219 44 L 56.21875 44 C 56.07775 45.718 55.864813 47.279 55.757812 48 L 52.074219 48 C 51.798219 48 51.574219 48.224 51.574219 48.5 L 51.574219 64 L 45.574219 64 L 45.574219 48.5 C 45.574219 48.224 45.350219 48 45.074219 48 L 42.574219 48 L 42.574219 44 L 45.074219 44 C 45.350219 44 45.574219 43.776 45.574219 43.5 L 45.574219 39.136719 L 45.574219 39.076172 C 45.567219 37.184172 46.090953 35.699203 47.126953 34.658203 C 48.219953 33.560203 49.871063 33.003 52.039062 33 z M 77.074219 36 C 76.798219 36 76.574219 36.224 76.574219 36.5 L 76.574219 38.5 C 76.574219 38.776 76.798219 39 77.074219 39 C 77.350219 39 77.574219 38.776 77.574219 38.5 L 77.574219 36.5 C 77.574219 36.224 77.350219 36 77.074219 36 z M 77.074219 40 C 76.798219 40 76.574219 40.224 76.574219 40.5 L 76.574219 44.5 C 76.574219 44.776 76.798219 45 77.074219 45 C 77.350219 45 77.574219 44.776 77.574219 44.5 L 77.574219 40.5 C 77.574219 40.224 77.350219 40 77.074219 40 z"/></svg>