<?xml version="1.0"?><svg fill="#000000" xmlns="http://www.w3.org/2000/svg"  viewBox="0 0 100 100" width="100px" height="100px">    <path d="M 30.613281 17.654297 C 23.445281 17.654297 17.613281 23.486297 17.613281 30.654297 L 17.613281 69.654297 C 17.613281 76.822297 23.445281 82.654297 30.613281 82.654297 L 69.613281 82.654297 C 76.781281 82.654297 82.613281 76.822297 82.613281 69.654297 L 82.613281 30.654297 C 82.613281 23.485297 76.782281 17.654297 69.613281 17.654297 L 30.613281 17.654297 z M 30.613281 19.654297 L 69.613281 19.654297 C 75.678281 19.654297 80.613281 24.589297 80.613281 30.654297 L 80.613281 69.654297 C 80.613281 75.719297 75.678281 80.654297 69.613281 80.654297 L 30.613281 80.654297 C 24.548281 80.654297 19.613281 75.719297 19.613281 69.654297 L 19.613281 30.654297 C 19.613281 24.589297 24.548281 19.654297 30.613281 19.654297 z M 33.451172 22.652344 C 27.475172 22.652344 22.613281 27.514234 22.613281 33.490234 L 22.613281 66.816406 C 22.613281 72.792406 27.475172 77.652344 33.451172 77.652344 L 66.777344 77.652344 C 72.753344 77.652344 77.613281 72.792406 77.613281 66.816406 L 77.613281 48.154297 C 77.613281 47.877297 77.390281 47.654297 77.113281 47.654297 C 76.837281 47.654297 76.613281 47.878297 76.613281 48.154297 L 76.613281 66.816406 C 76.613281 72.240406 72.201344 76.654297 66.777344 76.654297 L 33.451172 76.654297 C 28.027172 76.654297 23.613281 72.240406 23.613281 66.816406 L 23.613281 33.490234 C 23.613281 28.066234 28.027172 23.652344 33.451172 23.652344 L 67.113281 23.652344 C 67.389281 23.652344 67.613281 23.428344 67.613281 23.152344 C 67.613281 22.876344 67.389281 22.652344 67.113281 22.652344 L 33.451172 22.652344 z M 56.152344 37.347656 C 52.258344 37.347656 49.091797 40.515156 49.091797 44.410156 C 49.091797 44.732156 49.111344 45.050281 49.152344 45.363281 C 44.273344 44.946281 39.733187 42.552422 36.617188 38.732422 C 36.513188 38.605422 36.354406 38.542781 36.191406 38.550781 C 36.027406 38.563781 35.881828 38.654875 35.798828 38.796875 C 35.173828 39.871875 34.841797 41.099656 34.841797 42.347656 C 34.841797 44.091656 35.480516 45.744531 36.603516 47.019531 C 36.232516 46.899531 35.87225 46.743687 35.53125 46.554688 C 35.37925 46.470687 35.194969 46.469687 35.042969 46.554688 C 34.890969 46.639688 34.795063 46.799656 34.789062 46.972656 C 34.789062 46.978656 34.787109 47.066266 34.787109 47.072266 C 34.787109 49.665266 36.210047 51.994656 38.373047 53.222656 C 38.144047 53.205656 37.916594 53.175859 37.683594 53.130859 C 37.514594 53.099859 37.331844 53.157062 37.214844 53.289062 C 37.097844 53.421062 37.060281 53.605438 37.113281 53.773438 C 37.895281 56.215438 39.921234 58.005391 42.365234 58.525391 C 40.337234 59.815391 38.012313 60.490234 35.570312 60.490234 C 35.062312 60.490234 34.5545 60.460344 34.0625 60.402344 C 33.8345 60.373344 33.612203 60.510469 33.533203 60.730469 C 33.454203 60.949469 33.538375 61.193359 33.734375 61.318359 C 36.825375 63.297359 40.396453 64.345703 44.064453 64.345703 C 56.067453 64.345703 63.240234 54.594922 63.240234 45.169922 C 63.240234 44.967922 63.235516 44.767406 63.228516 44.566406 C 64.472516 43.634406 65.542109 42.502172 66.412109 41.201172 C 66.536109 41.016172 66.521906 40.771563 66.378906 40.601562 C 66.235906 40.432563 65.997922 40.377797 65.794922 40.466797 C 65.237922 40.714797 64.664125 40.918031 64.078125 41.082031 C 64.759125 40.337031 65.277844 39.451516 65.589844 38.478516 C 65.652844 38.280516 65.587781 38.065547 65.425781 37.935547 C 65.261781 37.805547 65.038375 37.790484 64.859375 37.896484 C 63.687375 38.589484 62.427328 39.085047 61.111328 39.373047 C 59.795328 38.081047 58.003344 37.347656 56.152344 37.347656 z M 77.113281 37.654297 C 76.837281 37.654297 76.613281 37.877297 76.613281 38.154297 L 76.613281 40.154297 C 76.613281 40.430297 76.837281 40.654297 77.113281 40.654297 C 77.389281 40.654297 77.613281 40.430297 77.613281 40.154297 L 77.613281 38.154297 C 77.613281 37.878297 77.389281 37.654297 77.113281 37.654297 z M 56.154297 38.347656 C 57.825297 38.347656 59.439031 39.046672 60.582031 40.263672 C 60.700031 40.388672 60.876969 40.444156 61.042969 40.410156 C 62.085969 40.205156 63.097453 39.881453 64.064453 39.439453 C 63.554453 40.289453 62.838703 41.009297 61.970703 41.529297 C 61.767703 41.650297 61.677906 41.896141 61.753906 42.119141 C 61.829906 42.342141 62.053156 42.483125 62.285156 42.453125 C 63.055156 42.362125 63.813734 42.206281 64.552734 41.988281 C 63.918734 42.707281 63.207734 43.353016 62.427734 43.916016 C 62.291734 44.014016 62.213703 44.173797 62.220703 44.341797 C 62.231703 44.615797 62.240234 44.894875 62.240234 45.171875 C 62.240234 54.105875 55.443406 63.345703 44.066406 63.345703 C 41.274406 63.345703 38.541641 62.705422 36.056641 61.482422 C 38.975641 61.382422 41.722297 60.383219 44.029297 58.574219 C 44.196297 58.444219 44.262313 58.221484 44.195312 58.021484 C 44.128312 57.821484 43.942469 57.685641 43.730469 57.681641 C 41.407469 57.638641 39.341234 56.278609 38.365234 54.224609 C 39.149234 54.276609 39.930547 54.196188 40.685547 53.992188 C 40.909547 53.931188 41.061687 53.726141 41.054688 53.494141 C 41.047688 53.262141 40.881297 53.065531 40.654297 53.019531 C 38.093297 52.505531 36.171797 50.395641 35.841797 47.806641 C 36.605797 48.113641 37.422094 48.2855 38.246094 48.3125 C 38.471094 48.3445 38.670281 48.177844 38.738281 47.964844 C 38.806281 47.752844 38.726016 47.520484 38.541016 47.396484 C 36.853016 46.266484 35.84375 44.380609 35.84375 42.349609 C 35.84375 41.520609 36.012891 40.702266 36.337891 39.947266 C 39.748891 43.805266 44.589328 46.14825 49.736328 46.40625 C 49.888328 46.40825 50.043531 46.346563 50.144531 46.226562 C 50.245531 46.106562 50.284047 45.945969 50.248047 45.792969 C 50.144047 45.349969 50.091797 44.884156 50.091797 44.410156 C 50.091797 41.067156 52.811297 38.347656 56.154297 38.347656 z M 77.113281 41.654297 C 76.837281 41.654297 76.613281 41.878297 76.613281 42.154297 L 76.613281 46.154297 C 76.613281 46.430297 76.837281 46.654297 77.113281 46.654297 C 77.389281 46.654297 77.613281 46.430297 77.613281 46.154297 L 77.613281 42.154297 C 77.613281 41.877297 77.390281 41.654297 77.113281 41.654297 z"/></svg>