<svg fill="#000000" xmlns="http://www.w3.org/2000/svg"  viewBox="0 0 100 100" width="100px" height="100px"><path d="M 31 17 C 23.28 17 17 23.28 17 31 L 17 69 C 17 76.72 23.28 83 31 83 L 69 83 C 76.72 83 83 76.72 83 69 L 83 31 C 83 23.28 76.72 17 69 17 L 31 17 z M 31 19 L 69 19 C 75.617 19 81 24.383 81 31 L 81 69 C 81 75.617 75.617 81 69 81 L 31 81 C 24.383 81 19 75.617 19 69 L 19 31 C 19 24.383 24.383 19 31 19 z M 33.5 22 C 27.159 22 22 27.159 22 33.5 L 22 66.5 C 22 72.841 27.159 78 33.5 78 L 66.5 78 C 72.841 78 78 72.841 78 66.5 L 78 49.5 C 78 49.224 77.776 49 77.5 49 C 77.224 49 77 49.224 77 49.5 L 77 66.5 C 77 72.29 72.29 77 66.5 77 L 33.5 77 C 27.71 77 23 72.29 23 66.5 L 23 33.5 C 23 27.71 27.71 23 33.5 23 L 66.5 23 C 66.823 23 67.140078 23.020828 67.455078 23.048828 C 67.728078 23.074828 67.973047 22.870703 67.998047 22.595703 C 68.023047 22.320703 67.819922 22.077734 67.544922 22.052734 C 67.199922 22.020734 66.853 22 66.5 22 L 33.5 22 z M 37 28 L 40.373047 39.496094 L 40.380859 45 L 43.207031 45 L 43.207031 39.181641 L 46.5 28.003906 L 43.619141 28.003906 L 41.867188 36.09375 L 41.689453 36.09375 L 39.849609 28.003906 L 37 28 z M 50.089844 32 C 48.993844 32.003 48.123516 32.287422 47.478516 32.857422 C 46.827516 33.422422 46.503906 34.187531 46.503906 35.144531 L 46.5 35.140625 L 46.505859 41.558594 C 46.505859 42.607594 46.820125 43.443453 47.453125 44.064453 C 48.092125 44.685453 48.932281 45 49.988281 45 C 51.088281 45 51.943406 44.69675 52.566406 44.09375 C 53.190406 43.48675 53.501953 42.654656 53.501953 41.597656 L 53.494141 35.208984 C 53.494141 34.264984 53.175063 33.493437 52.539062 32.898438 C 51.903063 32.297438 51.087844 32 50.089844 32 z M 56 32 L 56.005859 42.734375 C 56.005859 43.491375 56.1515 44.057688 56.4375 44.429688 C 56.7275 44.807688 57.152656 45 57.722656 45 C 58.179656 45 58.654625 44.855891 59.140625 44.587891 C 59.632625 44.319891 60.101734 43.928109 60.552734 43.412109 L 60.888672 45 L 63 45 L 63 32 L 60.546875 32 L 60.548828 41.761719 C 60.320828 42.035719 60.069016 42.263406 59.791016 42.441406 C 59.522016 42.619406 59.292422 42.708984 59.107422 42.708984 C 58.884422 42.708984 58.711281 42.635859 58.613281 42.505859 C 58.509281 42.369859 58.457031 42.153422 58.457031 41.857422 L 58.451172 32 L 56 32 z M 49.962891 34.142578 C 50.270891 34.142578 50.519031 34.225578 50.707031 34.392578 C 50.898031 34.559578 50.996094 34.776875 50.996094 35.046875 L 51 41.785156 C 51 42.116156 50.905703 42.380453 50.720703 42.564453 C 50.535703 42.756453 50.28575 42.851562 49.96875 42.851562 C 49.65875 42.851563 49.422812 42.760172 49.257812 42.576172 C 49.083813 42.393172 49.003906 42.126063 49.003906 41.789062 L 49 35.046875 C 49 34.779875 49.089625 34.560578 49.265625 34.392578 C 49.444625 34.228578 49.676891 34.142578 49.962891 34.142578 z M 77.5 37 C 77.224 37 77 37.224 77 37.5 L 77 39.5 C 77 39.776 77.224 40 77.5 40 C 77.776 40 78 39.776 78 39.5 L 78 37.5 C 78 37.224 77.776 37 77.5 37 z M 77.5 42 C 77.224 42 77 42.224 77 42.5 L 77 46.5 C 77 46.776 77.224 47 77.5 47 C 77.776 47 78 46.776 78 46.5 L 78 42.5 C 78 42.224 77.776 42 77.5 42 z M 50 48 C 49.477 48 37.145547 48.008422 34.310547 48.732422 C 32.588547 49.169422 31.233484 50.465328 30.771484 52.111328 C 30.009484 54.821328 30 60.27 30 60.5 C 30 60.73 30.009484 66.179672 30.771484 68.888672 C 31.233484 70.535672 32.588547 71.830531 34.310547 72.269531 C 37.145547 72.991531 49.477 73 50 73 C 50.523 73 62.854453 72.991578 65.689453 72.267578 C 67.411453 71.830578 68.766516 70.534672 69.228516 68.888672 C 69.990516 66.178672 70 60.73 70 60.5 C 70 60.27 69.990516 54.821328 69.228516 52.111328 C 68.766516 50.464328 67.411453 49.169469 65.689453 48.730469 C 62.854453 48.008469 50.523 48 50 48 z M 50 49 C 50.127 49 62.727406 49.008219 65.441406 49.699219 C 66.818406 50.051219 67.900625 51.078812 68.265625 52.382812 C 68.990625 54.959812 69 60.445 69 60.5 C 69 60.555 68.991625 66.039188 68.265625 68.617188 C 67.900625 69.921188 66.818406 70.948828 65.441406 71.298828 C 62.728406 71.992828 50.127 72 50 72 C 49.873 72 37.272594 71.991781 34.558594 71.300781 C 33.181594 70.948781 32.099375 69.922188 31.734375 68.617188 C 31.009375 66.040188 31 60.555 31 60.5 C 31 60.445 31.008375 54.960813 31.734375 52.382812 C 32.099375 51.078813 33.181594 50.051172 34.558594 49.701172 C 37.271594 49.007172 49.873 49 50 49 z M 34 52 L 34 54.34375 L 36.501953 54.34375 L 36.501953 69 L 38.998047 69 L 38.998047 54.34375 L 41.5 54.34375 L 41.5 52 L 34 52 z M 50 52 L 50 69 L 52.251953 69 L 52.503906 67.535156 C 53.288906 68.448156 54.314344 69 55.152344 69 C 56.102344 69 56.912563 68.532188 57.226562 67.617188 C 57.375563 67.124188 57.488 66.667812 57.5 65.632812 L 57.5 59.478516 C 57.503 58.319516 57.341734 57.440266 57.177734 56.947266 C 56.863734 56.031266 56.101344 55.527625 55.152344 55.515625 C 53.939344 55.504625 53.438953 56.103812 52.501953 57.132812 L 52.501953 52 L 50 52 z M 62.287109 55.5 C 61.024109 55.5 60.049891 55.875078 59.337891 56.580078 C 58.798891 57.096078 58.5 57.942922 58.5 59.044922 L 58.5 65.572266 C 58.5 66.663266 58.837328 67.437313 59.361328 67.945312 C 60.076328 68.647312 61.048609 69 62.349609 69 C 63.638609 69 64.649172 68.636766 65.326172 67.884766 C 65.625172 67.556766 65.824109 67.178578 65.912109 66.767578 C 65.923109 66.582578 66 66.077516 66 65.478516 L 63.498047 65.478516 L 63.498047 66.419922 C 63.498047 66.957922 62.935 67.404297 62.25 67.404297 C 61.565 67.404297 61.001953 66.957922 61.001953 66.419922 L 61.001953 62.835938 L 66 62.835938 L 66 59 C 66 57.895 65.712219 57.096078 65.199219 56.580078 C 64.513219 55.875078 63.523109 55.5 62.287109 55.5 z M 41 55.542969 L 41 66.296875 C 41 67.140875 41.123109 67.700172 41.287109 68.076172 C 41.563109 68.674172 42.125781 69 42.925781 69 C 43.839781 69 45.014047 68.401531 45.998047 67.394531 L 46.25 69 L 48.5 69 L 48.5 55.542969 L 45.998047 55.542969 L 45.998047 65.804688 C 45.450047 66.484687 44.649437 67 44.148438 67 C 43.826437 67 43.562953 66.86825 43.501953 66.53125 L 43.501953 55.542969 L 41 55.542969 z M 62.25 57.201172 C 62.935 57.201172 63.498047 57.637453 63.498047 58.189453 L 63.498047 61.205078 L 60.998047 61.205078 L 60.998047 58.189453 L 61.001953 58.189453 C 61.001953 57.637453 61.565 57.201172 62.25 57.201172 z M 54.027344 57.570312 C 54.701344 57.570312 55 57.954547 55 59.185547 L 55 65.330078 C 55 66.561078 54.701344 66.982422 54.027344 66.982422 C 53.640344 66.982422 52.902 66.737281 52.5 66.363281 L 52.5 58.306641 C 52.902 57.932641 53.637344 57.570313 54.027344 57.570312 z"/></svg>